<svg width="15" height="16" viewBox="0 0 15 16" fill="none" xmlns="http://www.w3.org/2000/svg">
<path d="M5.46874 8.77431H9.11457M5.46874 11.2049H7.29165M2.43054 3.30556V13.0278C2.43054 13.3501 2.55858 13.6592 2.78649 13.8871C3.0144 14.115 3.32351 14.2431 3.64582 14.2431H10.9375C11.2598 14.2431 11.5689 14.115 11.7968 13.8871C12.0247 13.6592 12.1528 13.3501 12.1528 13.0278V5.94393C12.1527 5.78203 12.1204 5.62177 12.0576 5.47255C11.9947 5.32334 11.9027 5.18818 11.787 5.07501L9.08905 2.43664C8.86201 2.21464 8.5571 2.09033 8.23957 2.09029H3.64582C3.32351 2.09029 3.0144 2.21832 2.78649 2.44623C2.55858 2.67414 2.43054 2.98325 2.43054 3.30556V3.30556Z" stroke="white" stroke-width="1.45833" stroke-linecap="round" stroke-linejoin="round"/>
<path d="M8.50693 2.09029V4.52084C8.50693 4.84315 8.63497 5.15226 8.86287 5.38017C9.09078 5.60808 9.39989 5.73612 9.72221 5.73612H12.1528" stroke="white" stroke-width="1.45833" stroke-linejoin="round"/>
</svg>
