<svg width="15" height="16" viewBox="0 0 15 16" fill="none" xmlns="http://www.w3.org/2000/svg">
<g clip-path="url(#clip0_267_981)">
<path d="M6.38021 13.5104C6.38021 13.5104 5.46875 13.5104 5.46875 12.599C5.46875 11.6875 6.38021 8.95313 10.026 8.95313C13.6719 8.95313 14.5833 11.6875 14.5833 12.599C14.5833 13.5104 13.6719 13.5104 13.6719 13.5104H6.38021ZM10.026 8.04167C10.7512 8.04167 11.4467 7.75359 11.9595 7.24079C12.4723 6.728 12.7604 6.0325 12.7604 5.3073C12.7604 4.5821 12.4723 3.8866 11.9595 3.3738C11.4467 2.86101 10.7512 2.57292 10.026 2.57292C9.30084 2.57292 8.60534 2.86101 8.09255 3.3738C7.57975 3.8866 7.29167 4.5821 7.29167 5.3073C7.29167 6.0325 7.57975 6.728 8.09255 7.24079C8.60534 7.75359 9.30084 8.04167 10.026 8.04167V8.04167Z" fill="white"/>
<path fill-rule="evenodd" clip-rule="evenodd" d="M4.75417 13.5104C4.61905 13.2259 4.55166 12.9139 4.55729 12.599C4.55729 11.3639 5.17708 10.0925 6.32188 9.20834C5.75047 9.03228 5.15516 8.94618 4.55729 8.95313C0.911458 8.95313 0 11.6875 0 12.599C0 13.5104 0.911458 13.5104 0.911458 13.5104H4.75417Z" fill="white"/>
<path d="M4.10155 8.04167C4.70589 8.04167 5.28547 7.8016 5.7128 7.37427C6.14013 6.94695 6.3802 6.36736 6.3802 5.76303C6.3802 5.15869 6.14013 4.57911 5.7128 4.15178C5.28547 3.72445 4.70589 3.48438 4.10155 3.48438C3.49722 3.48438 2.91764 3.72445 2.49031 4.15178C2.06298 4.57911 1.82291 5.15869 1.82291 5.76303C1.82291 6.36736 2.06298 6.94695 2.49031 7.37427C2.91764 7.8016 3.49722 8.04167 4.10155 8.04167V8.04167Z" fill="white"/>
</g>
<defs>
<clipPath id="clip0_267_981">
<rect width="14.5833" height="14.5833" fill="white" transform="translate(0 0.75)"/>
</clipPath>
</defs>
</svg>
