<svg width="15" height="15" viewBox="0 0 15 15" fill="none" xmlns="http://www.w3.org/2000/svg">
<path d="M8.50877 3.34203H12.7604C12.9093 3.34205 13.0529 3.39669 13.1641 3.49559C13.2753 3.59448 13.3464 3.73076 13.3638 3.87857L13.3681 3.94966V8.20314C13.3693 8.35896 13.3106 8.50929 13.2042 8.62308C13.0977 8.73687 12.9516 8.80541 12.796 8.81454C12.6405 8.82366 12.4874 8.77268 12.3683 8.67212C12.2493 8.57157 12.1734 8.42912 12.1564 8.27423L12.1528 8.20314L12.1522 5.4165L7.72127 9.84802C7.61672 9.95273 7.47755 10.0157 7.32988 10.0251C7.1822 10.0345 7.03617 9.98967 6.91919 9.89906L6.86207 9.84862L5.46693 8.45591L2.25374 11.6703C2.14439 11.7793 1.99766 11.8426 1.84335 11.8473C1.68904 11.852 1.53872 11.7978 1.42293 11.6957C1.30713 11.5936 1.23454 11.4512 1.2199 11.2976C1.20526 11.1439 1.24967 10.9904 1.3441 10.8682L1.39454 10.8105L5.03673 7.16711C5.14128 7.0624 5.28045 6.99944 5.42812 6.99004C5.5758 6.98065 5.72183 7.02546 5.83881 7.11607L5.89593 7.1665L7.29107 8.55921L11.2924 4.5573H8.50877C8.35994 4.55728 8.21629 4.50264 8.10508 4.40374C7.99386 4.30485 7.9228 4.16857 7.90539 4.02076L7.90114 3.94966C7.90115 3.80083 7.9558 3.65719 8.05469 3.54597C8.15359 3.43475 8.28987 3.36369 8.43768 3.34628L8.50877 3.34203H12.7604H8.50877Z" fill="white"/>
</svg>
